<svg id="레이어_1" data-name="레이어 1" xmlns="http://www.w3.org/2000/svg" viewBox="0 0 96 96"><defs><style>.cls-1{fill:#f9e022;}.cls-2{fill:#90d772;}.cls-3{fill:#7782fa;}.cls-4{fill:#fff;stroke:#000;stroke-miterlimit:10;stroke-width:2px;}.cls-5{fill:#ff5bac;}</style></defs><path class="cls-1" d="M24.78,46.57A21.79,21.79,0,1,1,46.57,24.78,21.81,21.81,0,0,1,24.78,46.57Z" transform="translate(-2 -2)"/><path d="M24.78,4A20.79,20.79,0,1,1,4,24.78,20.8,20.8,0,0,1,24.78,4m0-2h0A22.78,22.78,0,0,0,2,24.78H2A22.78,22.78,0,0,0,24.78,47.57h0A22.79,22.79,0,0,0,47.57,24.78h0A22.78,22.78,0,0,0,24.78,2Z" transform="translate(-2 -2)"/><path class="cls-2" d="M24.78,97A21.79,21.79,0,1,1,46.57,75.21,21.81,21.81,0,0,1,24.78,97Z" transform="translate(-2 -2)"/><path d="M24.78,54.43A20.79,20.79,0,1,1,4,75.22,20.81,20.81,0,0,1,24.78,54.43m0-2h0A22.78,22.78,0,0,0,2,75.22H2A22.78,22.78,0,0,0,24.78,98h0A22.78,22.78,0,0,0,47.57,75.22h0A22.79,22.79,0,0,0,24.78,52.43Z" transform="translate(-2 -2)"/><path class="cls-3" d="M75.21,97A21.79,21.79,0,1,1,97,75.21,21.81,21.81,0,0,1,75.21,97Z" transform="translate(-2 -2)"/><path d="M75.22,54.43A20.79,20.79,0,1,1,54.43,75.22,20.8,20.8,0,0,1,75.22,54.43m0-2h0A22.79,22.79,0,0,0,52.43,75.22h0A22.78,22.78,0,0,0,75.22,98h0A22.78,22.78,0,0,0,98,75.22h0A22.78,22.78,0,0,0,75.22,52.43Z" transform="translate(-2 -2)"/><rect class="cls-4" x="14.61" y="14.6" width="19.79" height="19.79" transform="translate(22.5 -12.15) rotate(45)"/><rect class="cls-4" x="65.61" y="65.6" width="19.79" height="19.79" transform="translate(149 -2) rotate(90)"/><rect class="cls-4" x="14.61" y="65.6" width="19.79" height="19.79" rx="9.9" transform="translate(98 49) rotate(90)"/><path class="cls-5" d="M75,46.74A21.79,21.79,0,1,1,96.73,25,21.81,21.81,0,0,1,75,46.74Z" transform="translate(-2 -2)"/><path d="M75,4.17A20.79,20.79,0,1,1,54.16,25,20.81,20.81,0,0,1,75,4.17m0-2h0A22.79,22.79,0,0,0,52.16,25h0A22.78,22.78,0,0,0,75,47.74h0A22.78,22.78,0,0,0,97.73,25h0A22.79,22.79,0,0,0,75,2.17Z" transform="translate(-2 -2)"/><path class="cls-4" d="M64.32,29l9.22,8.61a2.08,2.08,0,0,0,2.82,0L85.57,29A7.61,7.61,0,0,0,88,23.38v-.29a7.29,7.29,0,0,0-12.44-5.16l-.61.61-.61-.61A7.29,7.29,0,0,0,61.9,23.09v.29A7.6,7.6,0,0,0,64.32,29Z" transform="translate(-2 -2)"/></svg>